<svg width="236" height="88" viewBox="0 0 236 88" fill="none" xmlns="http://www.w3.org/2000/svg">
<path d="M165.348 16.9004C165.348 28.2727 157.898 36.4791 142.998 41.5196C147.249 43.7274 149.648 47.7473 150.196 53.5792C150.364 55.3704 150.448 57.6407 150.448 60.3901C150.448 63.1394 149.669 66.2012 148.112 69.5754C146.555 72.908 144.324 75.8656 141.42 78.4483C134.938 84.2803 126.71 87.1962 116.735 87.1962C106.086 87.1962 97.4157 84.0095 90.7236 77.636C84.2418 71.4708 81.001 63.7643 81.001 54.5165C81.001 47.8931 83.1265 41.8945 87.3775 36.5207C91.4601 31.397 96.6371 27.877 102.908 25.9607C100.13 23.2114 98.7416 20.4412 98.7416 17.6502C98.7416 14.8592 99.2256 12.4431 100.194 10.4019C101.204 8.31909 102.614 6.54868 104.424 5.09069C108.212 1.96643 113.241 0.404297 119.513 0.404297C126.836 0.404297 131.845 1.5082 134.538 3.71601C135.254 4.29921 135.612 4.81992 135.612 5.27814C135.612 5.73637 135.57 6.50702 135.485 7.5901C135.401 8.67317 135.254 9.79791 135.043 10.9643C134.58 13.8386 133.949 15.2758 133.149 15.2758C132.602 15.2758 131.992 15.0883 131.319 14.7134C130.687 14.3385 130.308 13.7761 130.182 13.0263C129.046 7.06939 125.51 4.09092 119.576 4.09092C116.335 4.09092 113.641 5.25731 111.495 7.5901C109.474 9.83956 108.464 12.339 108.464 15.0883C108.464 20.587 110.926 24.357 115.851 26.3981C117.282 26.9813 117.997 27.6895 117.997 28.5226C117.997 29.3558 116.629 30.0015 113.894 30.4597C111.2 30.9179 108.506 31.8552 105.813 33.2715C103.119 34.6878 100.825 36.4583 98.931 38.5828C95.1429 42.9567 93.2489 48.5596 93.2489 55.3913C93.2489 62.5562 95.7743 68.659 100.825 73.6994C105.96 78.8649 112.421 81.4476 120.207 81.4476C130.351 81.4476 137.106 77.3652 140.473 69.2005C141.651 66.4095 142.241 63.5768 142.241 60.7025C142.241 57.8282 141.967 55.5162 141.42 53.7667C140.915 52.0171 140.136 50.4966 139.084 49.2052C136.727 46.3309 133.507 44.8938 129.425 44.8938C125.763 44.8938 122.311 46.206 119.071 48.8303C115.914 51.3297 113.957 54.329 113.199 57.8282C115.64 58.578 116.861 60.0152 116.861 62.1397C116.861 63.431 116.461 64.4516 115.661 65.2015C114.904 65.9096 113.936 66.2637 112.757 66.2637C111.579 66.2637 110.484 65.6597 109.474 64.4516C108.464 63.2436 107.959 61.6606 107.959 59.7028C107.959 57.7449 108.233 55.7662 108.78 53.7667C109.369 51.7255 110.463 49.7676 112.063 47.8931C115.514 43.769 121.343 40.5615 129.551 38.2703C145.839 33.7297 155.436 28.1686 158.34 21.5868C159.224 19.5873 159.666 17.796 159.666 16.2131C159.666 14.6301 159.497 13.4012 159.161 12.5264C158.866 11.6516 158.466 10.9226 157.961 10.3394C156.993 9.21471 155.667 8.65234 153.984 8.65234C152.342 8.65234 151.395 9.52714 151.143 11.2767C152.91 11.6516 153.794 12.5264 153.794 13.9011C153.794 14.8592 153.478 15.5882 152.847 16.0881C152.258 16.5463 151.416 16.7754 150.322 16.7754C149.227 16.7754 148.302 16.338 147.544 15.4632C146.828 14.5884 146.471 13.6512 146.471 12.6514C146.471 11.61 146.639 10.6519 146.976 9.77708C147.355 8.86063 147.881 8.04832 148.554 7.34015C150.196 5.63223 151.942 4.77826 153.794 4.77826C155.646 4.77826 157.203 5.0282 158.466 5.52808C159.771 6.02797 160.928 6.77779 161.938 7.77755C164.211 10.027 165.348 13.068 165.348 16.9004Z" fill="#AEA9A3"/>
<path d="M64.9651 59.6064V38.8082H56.2871V33.1465H80.6089V38.8082H71.9309V59.6064H64.9651Z" fill="#AEA9A3"/>
<path d="M30.7852 59.6064V33.1465H46.3122C48.2839 33.1465 49.9313 33.5188 51.2544 34.2634C52.5775 34.9824 53.5633 35.9838 54.2119 37.2676C54.8864 38.5258 55.2237 39.938 55.2237 41.5043C55.2237 43.1989 54.8216 44.7139 54.0173 46.0491C53.2391 47.3586 52.1365 48.3856 50.7096 49.1303L56.0798 59.6064H48.2969L43.8606 50.2857H37.7509V59.6064H30.7852ZM37.7509 45.1632H44.9502C45.9101 45.1632 46.6754 44.8551 47.2462 44.2388C47.8429 43.5969 48.1412 42.7496 48.1412 41.6968C48.1412 41.0036 48.0115 40.413 47.752 39.9252C47.4926 39.4373 47.1294 39.065 46.6624 38.8082C46.1955 38.5258 45.6247 38.3845 44.9502 38.3845H37.7509V45.1632Z" fill="#AEA9A3"/>
<path d="M0.311523 59.6064L10.3516 33.1465H18.7183L28.7583 59.6064H21.3256L19.7301 55.0231H9.06737L7.47186 59.6064H0.311523ZM10.7407 49.8621H18.0178L16.111 44.2774C16.0072 43.9949 15.8775 43.6483 15.7218 43.2375C15.5921 42.8009 15.4494 42.3516 15.2938 41.8894C15.164 41.4016 15.0343 40.9137 14.9046 40.4258C14.7749 39.938 14.6452 39.5143 14.5155 39.1548H14.2431C14.1393 39.6427 13.9836 40.1948 13.7761 40.811C13.5945 41.4272 13.3999 42.0435 13.1924 42.6597C13.0108 43.276 12.8421 43.8152 12.6865 44.2774L10.7407 49.8621Z" fill="#AEA9A3"/>
<path d="M210.665 59.6064V33.1465H232.73V38.5386H217.631V43.5071H230.823V48.7836H217.631V54.2143H233.002V59.6064H210.665Z" fill="#AEA9A3"/>
<path d="M184.623 59.6064V33.1465H206.688V38.5386H191.589V43.5071H204.781V48.7836H191.589V54.2143H206.96V59.6064H184.623Z" fill="#AEA9A3"/>
<path d="M169.669 60.0679C167.983 60.0679 166.4 59.9138 164.922 59.6057C163.443 59.3232 162.133 58.8482 160.991 58.1806C159.876 57.513 158.994 56.64 158.345 55.5616C157.696 54.4575 157.372 53.1095 157.372 51.5175C157.372 51.4148 157.372 51.2993 157.372 51.1709C157.372 51.0425 157.385 50.9398 157.411 50.8627H164.143C164.143 50.9398 164.13 51.0425 164.104 51.1709C164.104 51.2736 164.104 51.3634 164.104 51.4405C164.104 52.2621 164.312 52.9297 164.727 53.4433C165.168 53.9311 165.778 54.2906 166.556 54.5217C167.334 54.7271 168.242 54.8298 169.28 54.8298C169.851 54.8298 170.383 54.8041 170.876 54.7528C171.368 54.7014 171.809 54.6116 172.199 54.4832C172.588 54.3548 172.925 54.2007 173.21 54.021C173.522 53.8156 173.742 53.5845 173.872 53.3277C174.028 53.0453 174.105 52.7243 174.105 52.3648C174.105 51.7743 173.872 51.2864 173.405 50.9013C172.964 50.5161 172.354 50.1952 171.576 49.9384C170.824 49.6816 169.968 49.4377 169.008 49.2066C168.048 48.9755 167.049 48.7316 166.011 48.4748C164.973 48.218 163.975 47.8971 163.015 47.5119C162.055 47.1268 161.186 46.6389 160.407 46.0484C159.655 45.4578 159.045 44.726 158.578 43.853C158.137 42.9543 157.917 41.8759 157.917 40.6177C157.917 39.2312 158.215 38.0372 158.812 37.0358C159.409 36.0087 160.226 35.1742 161.264 34.5323C162.327 33.8904 163.547 33.4282 164.922 33.1458C166.297 32.8377 167.762 32.6836 169.319 32.6836C170.85 32.6836 172.276 32.8377 173.6 33.1458C174.949 33.4539 176.142 33.9418 177.18 34.6094C178.217 35.2513 179.022 36.0729 179.592 37.0743C180.189 38.05 180.5 39.2312 180.526 40.6177V41.0799H173.833V40.8103C173.833 40.2197 173.664 39.7062 173.327 39.2697C173.016 38.8075 172.536 38.448 171.887 38.1913C171.239 37.9088 170.435 37.7676 169.475 37.7676C168.515 37.7676 167.697 37.8575 167.023 38.0372C166.374 38.2169 165.868 38.4737 165.505 38.8075C165.168 39.1413 164.999 39.5393 164.999 40.0015C164.999 40.5664 165.22 41.0285 165.661 41.388C166.128 41.7475 166.751 42.0556 167.529 42.3124C168.307 42.5692 169.176 42.8131 170.136 43.0442C171.096 43.2496 172.082 43.4807 173.094 43.7374C174.131 43.9685 175.13 44.2767 176.09 44.6618C177.05 45.0213 177.919 45.4963 178.697 46.0869C179.476 46.6518 180.085 47.3579 180.526 48.2052C180.993 49.0525 181.227 50.0796 181.227 51.2864C181.227 53.3919 180.721 55.0866 179.709 56.3704C178.723 57.6543 177.348 58.5915 175.584 59.182C173.846 59.7726 171.874 60.0679 169.669 60.0679Z" fill="#AEA9A3"/>
</svg>
