<svg width="82" height="81" viewBox="0 0 82 81" fill="none" xmlns="http://www.w3.org/2000/svg">
<path fill-rule="evenodd" clip-rule="evenodd" d="M41.0001 1.19141C19.3773 1.19141 1.84863 18.7911 1.84863 40.5001C1.84863 62.2095 19.3777 79.8092 41.0001 79.8092C62.6222 79.8092 80.1517 62.2095 80.1517 40.5001C80.1517 18.7911 62.6222 1.19141 41.0001 1.19141ZM21.7709 51.8885V48.6347C20.1236 50.5089 18.2465 51.7578 15.4814 51.7427C8.93901 51.7069 3.63457 46.4168 3.63457 39.8479C3.63457 33.279 8.93901 27.954 15.4814 27.954C22.0243 27.954 27.7157 33.2374 27.7157 39.8071L27.7224 51.8469L21.7709 51.8885ZM41.2951 52.0755C34.7523 52.0755 29.0608 46.792 29.0608 40.2223L29.0541 20.2093H34.9969L35.0049 31.3943C36.653 29.5206 38.5297 28.2712 41.2951 28.2864C47.8363 28.3229 53.1416 33.6122 53.1416 40.1811C53.1416 46.7504 47.8363 52.0755 41.2951 52.0755ZM66.7685 51.796C60.2257 51.796 54.9212 46.471 54.9212 39.9021C54.9212 33.3332 60.2257 28.0082 66.7685 28.0082C72.4784 28.0082 77.2626 32.1936 78.3838 37.593L72.4259 37.5732C71.5132 35.407 69.368 33.9434 66.8769 33.9434C63.5563 33.9434 60.864 36.6454 60.864 39.9794C60.864 43.3139 63.5559 46.0172 66.8769 46.0172C69.368 46.0172 71.5397 44.5695 72.4524 42.4024L78.4094 42.3747C77.3042 47.7943 72.4931 51.796 66.7685 51.796Z" fill="black"/>
<path fill-rule="evenodd" clip-rule="evenodd" d="M41.143 33.8267C37.8224 33.8267 35.1296 36.5295 35.1296 39.8635C35.1296 43.1976 37.8224 45.9013 41.143 45.9013C44.4636 45.9013 47.1563 43.1976 47.1563 39.8635C47.1563 36.5295 44.4636 33.8267 41.143 33.8267ZM15.5553 33.8267C12.2348 33.8267 9.54199 36.5295 9.54199 39.8635C9.54199 43.1976 12.2348 45.9013 15.5553 45.9013C18.8759 45.9013 21.5687 43.1976 21.5687 39.8635C21.5687 36.5295 18.8759 33.8267 15.5553 33.8267Z" fill="black"/>
</svg>
