<svg width="64" height="61" viewBox="0 0 64 61" fill="none" xmlns="http://www.w3.org/2000/svg">
<path fill-rule="evenodd" clip-rule="evenodd" d="M64 60.4441H0V0H64V60.4441ZM43.9269 49.7776V25.3789L46.2596 25.3822C48.3966 25.3822 50.1311 27.1167 50.1311 29.2538C50.1311 31.3933 48.3966 33.1273 46.2596 33.1273L44.7962 33.0983V40.3302H48.0316C54.0341 40.3302 58.9019 35.4653 58.9019 29.462C58.9019 23.4587 54.0341 18.5921 48.0316 18.5921H35.4171V49.7776H43.9269ZM34.2146 12.2491V44.4561H26.0485V24.5333L21.1085 32.5626H24.8812V39.8358H16.7151L13.9019 44.4561H4.02012L25.4303 12.2491H34.2146Z" fill="black"/>
</svg>
