<svg width="108" height="43" viewBox="0 0 108 43" fill="none" xmlns="http://www.w3.org/2000/svg">
<path d="M37.2441 42.839C42.4453 42.688 47.1585 40.4607 50.685 36.9431C53.8879 40.5556 58.5579 42.839 63.7419 42.839C68.9515 42.839 73.6391 40.534 76.8416 36.887C80.0486 40.5344 84.7362 42.839 89.9458 42.839C99.5495 42.839 107.401 34.9917 107.401 25.384V0.00440409H96.0062V25.384C96.0062 29.1046 93.0319 32.1518 89.3112 32.1518C85.5865 32.1518 82.5389 29.1046 82.5389 25.384V0.00440409H71.1443V25.384C71.1443 29.1046 68.0967 32.1518 64.3721 32.1518C60.6514 32.1518 57.6775 29.1046 57.6775 25.384V0.00440409H46.2825V21.5644C46.2004 26.8906 42.3116 31.3103 37.5376 31.4528L20.8725 31.4484C15.9175 31.4484 11.8906 26.9682 11.8906 21.4563C11.8906 15.9056 15.9175 11.391 20.8725 11.391H37.568V0H20.8725C9.63728 0 0.5 9.61252 0.5 21.4559C0.5 33.2308 9.63728 42.8386 20.8725 42.8386L37.2441 42.839Z" fill="black"/>
<path d="M21.7999 24.9227V19.0748H23.8802V17.9226H18.2822V19.0748H20.3626V24.9227H21.7999ZM36.6385 19.0732V17.9202H32.1063V24.9211H36.7678V23.7696H33.5484V21.9519H36.375V20.7736H33.5484V19.0732H36.6385ZM30.7482 24.9227V17.9226H29.3153V20.7756H26.3377V17.9226H24.9044V24.9187H26.3377V21.9535H29.3157V24.9231L30.7482 24.9227Z" fill="black"/>
</svg>
