<svg xmlns="http://www.w3.org/2000/svg" fill="none" viewBox="0 0 108 108" height="108" width="108">
<rect fill="#FFFBF6" height="108" width="108"></rect>
<path fill="black" d="M102 25.8661C102 38.1829 93.9626 47.0708 77.8877 52.5299C82.4741 54.921 85.0624 59.2748 85.6527 65.5911C85.8343 67.5311 85.9251 69.9899 85.9251 72.9676C85.9251 75.9453 85.0851 79.2613 83.4049 82.9158C81.7248 86.5251 79.3181 89.7283 76.1849 92.5256C69.1919 98.8419 60.3144 102 49.5524 102C38.0639 102 28.7096 98.5486 21.4895 91.6458C14.4965 84.9686 11 76.622 11 66.6062C11 59.4327 13.2932 52.9359 17.8795 47.1159C22.2842 41.5666 27.8695 37.7543 34.6355 35.6789C31.6385 32.7012 30.14 29.701 30.14 26.6782C30.14 23.6554 30.6622 21.0386 31.7066 18.8279C32.7964 16.5721 34.3176 14.6547 36.2702 13.0756C40.357 9.69186 45.7834 8 52.5494 8C60.4506 8 65.8543 9.19558 68.7605 11.5868C69.5324 12.2184 69.9184 12.7823 69.9184 13.2786C69.9184 13.7749 69.873 14.6096 69.7822 15.7826C69.6914 16.9556 69.5324 18.1737 69.3054 19.437C68.8059 22.55 68.1247 24.1066 67.262 24.1066C66.6717 24.1066 66.0132 23.9035 65.2867 23.4975C64.6055 23.0914 64.1969 22.4824 64.0606 21.6703C62.8346 15.2186 59.0202 11.9928 52.6175 11.9928C49.121 11.9928 46.2148 13.2561 43.899 15.7826C41.7193 18.2189 40.6295 20.9258 40.6295 23.9035C40.6295 29.8589 43.2859 33.9419 48.5988 36.1526C50.1427 36.7843 50.9147 37.5512 50.9147 38.4536C50.9147 39.3559 49.4389 40.0552 46.4873 40.5515C43.5811 41.0478 40.6749 42.0629 37.7687 43.5968C34.8625 45.1308 32.3877 47.0482 30.3443 49.3492C26.2575 54.0864 24.2141 60.1545 24.2141 67.5536C24.2141 75.3137 26.9386 81.9232 32.3877 87.3823C37.9276 92.9767 44.898 95.7739 53.2987 95.7739C64.2423 95.7739 71.5304 91.3525 75.1632 82.5097C76.4346 79.4869 77.0704 76.419 77.0704 73.306C77.0704 70.1929 76.7752 67.689 76.1849 65.7941C75.64 63.8992 74.7999 62.2525 73.6647 60.8539C71.1218 57.7408 67.648 56.1843 63.2433 56.1843C59.2927 56.1843 55.5691 57.6055 52.0726 60.4478C48.6669 63.1548 46.5554 66.4032 45.738 70.1929C48.3718 71.005 49.6886 72.5616 49.6886 74.8625C49.6886 76.2611 49.2572 77.3664 48.3945 78.1785C47.5771 78.9455 46.5327 79.329 45.2612 79.329C43.9898 79.329 42.8091 78.6748 41.7193 77.3664C40.6295 76.0581 40.0846 74.3437 40.0846 72.2232C40.0846 70.1027 40.3797 67.9597 40.9701 65.7941C41.6058 63.5834 42.7864 61.4629 44.512 59.4327C48.2355 54.9662 54.5247 51.4922 63.3795 49.0108C80.9528 44.0931 91.3061 38.0701 94.4394 30.9417C95.393 28.7761 95.8698 26.8361 95.8698 25.1217C95.8698 23.4072 95.6881 22.0763 95.3248 21.1289C95.007 20.1814 94.5756 19.3919 94.0307 18.7603C92.9863 17.5421 91.5559 16.933 89.7395 16.933C87.9686 16.933 86.9469 17.8805 86.6744 19.7754C88.5816 20.1814 89.5352 21.1289 89.5352 22.6177C89.5352 23.6554 89.1946 24.4449 88.5135 24.9863C87.8777 25.4826 86.9696 25.7307 85.7889 25.7307C84.6083 25.7307 83.6093 25.257 82.7919 24.3096C82.02 23.3621 81.634 22.347 81.634 21.2642C81.634 20.1363 81.8156 19.0986 82.1789 18.1512C82.5876 17.1586 83.1552 16.2789 83.8817 15.5119C85.6527 13.6621 87.5372 12.7372 89.5352 12.7372C91.5332 12.7372 93.2133 13.0079 94.5756 13.5493C95.9833 14.0907 97.232 14.9028 98.3219 15.9856C100.774 18.4219 102 21.7154 102 25.8661Z"></path>
</svg>
