<svg width="104" height="45" viewBox="0 0 104 45" fill="none" xmlns="http://www.w3.org/2000/svg">
<path d="M103.907 44.7587H89.6991C89.5684 44.7587 89.3298 44.1849 89.2617 44.0656C87.3075 40.5378 85.3533 36.9931 83.4105 33.471C81.3313 37.2203 79.309 41.0321 77.2355 44.7871C72.583 44.7984 67.9701 44.7644 63.3574 44.7757C63.88 43.7986 64.4368 42.8443 64.9935 41.8842C68.8734 35.1809 72.6966 28.3867 76.5822 21.6777C72.4523 14.4632 68.2599 7.30541 64.1072 0.107884C64.0959 0.107884 64.0675 0.0624376 64.0959 0.0681184H78.3717C80.127 3.26071 81.8369 6.49306 83.5638 9.70838C85.359 6.52147 87.0917 3.27207 88.8697 0.0681184H102.668C102.68 0.124926 102.64 0.187414 102.611 0.232861C98.5838 7.31109 94.4596 14.412 90.4375 21.5016C94.9084 29.2616 99.4644 37.0158 103.907 44.7587Z" fill="black"/>
<path d="M69.4126 17.4115C69.7762 18.8885 69.9864 20.5132 69.9864 22.2232C69.9864 27.5573 68.4413 31.5112 66.2939 34.7265C65.9304 35.2719 65.5611 35.7945 65.1635 36.2945C63.9989 37.7715 62.5901 39.1177 61.0165 40.2369C59.9598 40.9867 58.8578 41.6684 57.6364 42.2422C55.2051 43.384 52.2681 44.2759 48.8823 44.2759C43.5879 44.2759 39.6795 42.6625 36.5154 40.447C33.3511 38.2259 30.8857 35.2889 29.2098 31.5851C28.085 29.1026 27.3465 26.2395 27.2613 22.7515C27.2216 21.0245 27.4374 19.3203 27.7499 17.8433C28.5452 14.1167 30.1074 11.1968 32.0844 8.68021C34.0612 6.16931 36.5664 4.20377 39.5943 2.72109C40.7816 2.14165 42.1109 1.64742 43.5595 1.28953C45.0081 0.931645 46.61 0.687373 48.3427 0.687373H48.3711C50.064 0.607842 51.859 0.880519 53.2679 1.19296C54.7335 1.51676 56.0912 2.01099 57.3012 2.55634C61.0505 4.24921 63.8455 6.78283 66.095 9.94702C67.5777 12.0205 68.6912 14.5087 69.4126 17.4115ZM52.3703 32.2156C52.5067 31.6703 52.4669 30.9716 52.4669 30.2501V13.8327C52.4669 13.1282 52.3874 12.5829 52.1828 12.0716C51.9954 11.6058 51.7057 11.1797 51.3648 10.8332C50.7002 10.1572 49.7004 9.54937 48.445 9.64594C47.8371 9.69139 47.3315 9.88453 46.8884 10.1629C46.0647 10.6855 45.4398 11.4865 45.1842 12.5488C45.0535 13.0885 45.0592 13.7759 45.0592 14.486V30.9034C45.0592 31.2556 45.0422 31.5964 45.0876 31.8975C45.207 32.761 45.5932 33.454 46.0988 33.971C46.7521 34.6356 47.7633 35.1923 49.0699 35.0503C50.757 34.8685 51.9954 33.7494 52.3703 32.2156ZM27.8408 12.2591H12.747C12.6845 14.1337 12.7356 16.2072 12.7186 18.0932C16.7974 18.1273 20.9386 18.0989 25.0458 18.1046V30.3353C20.9102 30.3466 16.7406 30.3182 12.6277 30.3466C12.6334 35.198 12.6561 39.9585 12.6561 44.8099C12.6561 44.8269 12.6503 44.8326 12.6447 44.8383H0.0618293C0.0391062 44.844 0.0391062 44.8269 0.0220639 44.8269C-0.00633991 29.9319 -0.00633991 14.9404 0.01644 0.0397654C0.01644 0.0227231 0.01644 0 0.0277447 0H26.983C27.0001 0 27.0057 0 27.0114 0.0113615C27.2954 4.09015 27.5681 8.17462 27.8408 12.2591Z" fill="black"/>
</svg>
