<svg width="74" height="72" viewBox="0 0 74 72" fill="none" xmlns="http://www.w3.org/2000/svg">
<path fill-rule="evenodd" clip-rule="evenodd" d="M8.18403 41.2569C3.94031 41.2569 0.5 37.8205 0.5 33.5819C0.5 29.3432 3.94031 25.9064 8.18403 25.9064C9.73386 25.9064 11.1768 26.3649 12.384 27.1535L33.3174 41.2569H8.18403ZM10.3078 23.9855C6.75281 21.6779 5.74221 16.927 8.05097 13.3735C10.3597 9.82043 15.1134 8.81022 18.6681 11.1178C19.9188 11.9267 20.9057 13.0838 21.5071 14.4465L32.2049 38.8323L10.3078 23.9855ZM65.7976 41.2643C70.0515 41.2643 73.5 37.8248 73.5 33.5815C73.5 29.3382 70.0515 25.8986 65.7976 25.8986C64.2447 25.8986 62.7986 26.3575 61.5886 27.1468L40.6069 41.2647L65.7976 41.2643ZM63.6742 23.9851C67.2371 21.6756 68.25 16.9196 65.9362 13.363C63.6223 9.80638 58.8585 8.79539 55.2957 11.1053C54.0422 11.9145 53.0529 13.0728 52.45 14.4376L41.7279 38.8463L63.6742 23.9851ZM40.0443 9.54456C39.4957 9.96948 37.9919 10.2005 38.3181 12.878L41.566 35.5937L52.3985 10.8322C54.1302 6.95447 52.3809 2.41148 48.4927 0.685279C44.6036 -1.04131 40.047 0.702448 38.3157 4.58016C37.7543 5.83239 37.5408 7.21279 37.6977 8.57611L39.7391 8.57259C40.8961 8.62995 41.5051 8.93742 40.0443 9.54456ZM21.5777 10.8384C19.8499 6.96423 21.5953 2.42514 25.4757 0.700496C29.3566 -1.02415 33.9035 0.718055 35.6312 4.59226C36.2407 5.95274 36.4385 7.46193 36.2001 8.93352L32.3876 35.5781L21.5777 10.8384ZM68.6125 70.8982C67.3682 71.4046 65.5183 71.9177 63.8038 71.9177C55.9672 71.9177 49.6137 65.9014 49.6137 58.4803C49.6137 51.0589 55.9672 45.0429 63.8038 45.0429C65.4902 45.0429 67.3397 45.4538 68.6125 46.0375V51.1748C67.1848 50.2354 65.5127 49.736 63.8038 49.7385C58.9662 49.7385 55.0436 53.6521 55.0436 58.4799C55.0436 63.3074 58.9662 67.221 63.8038 67.221C65.5709 67.221 67.2363 66.6989 68.6125 65.8003V70.8982ZM21.4642 45.9209H26.6736V71.5958L10.6364 56.9496V71.0339H5.42694V45.3656L21.4642 60.0118V45.9209ZM44.1303 57.6137C45.7208 56.4353 47.1056 55.3108 47.0927 52.345C47.0751 48.4415 43.9169 45.8967 39.9998 45.8967H29.6625V71.0585H41.2574C45.3641 71.0585 48.4888 67.9432 48.4888 63.8494C48.4888 59.7563 45.105 57.9696 44.1303 57.6137ZM34.9 49.7007L38.7722 49.701C40.5851 49.701 42.0545 51.1658 42.0545 52.9728C42.0545 54.7794 40.5851 56.2445 38.7722 56.2445H34.9V49.7007ZM39.6143 67.2815H34.9008V60.0036L39.6147 59.9822C41.6359 59.9822 43.2743 61.6163 43.2743 63.632C43.2743 65.6478 41.6355 67.2815 39.6143 67.2815Z" fill="black"/>
</svg>
